<svg width="460" height="583" viewBox="0 0 460 583" fill="none" xmlns="http://www.w3.org/2000/svg">
<g clip-path="url(#clip0_137_3915)">
<path d="M165.279 144.489C180.072 136.573 181.494 135.16 206.244 101.517C229.002 70.4189 239.812 59.9586 263.993 44.4094C284.191 31.6875 299.837 26.0332 326.862 22.358L342.224 20.0963L351.043 11.0495C355.879 5.96074 360.431 2.00279 361 1.72008C362.706 1.43737 362.706 3.98177 361.284 11.615C360.431 15.2902 360.431 18.4 360.715 18.9655C361.853 19.8136 367.827 12.4631 371.525 5.39532C373.232 2.00279 375.223 -0.258904 375.792 0.0238074C378.637 1.15465 376.93 18.6827 373.232 24.337C370.956 28.2949 372.379 29.9912 382.904 36.7762C394.283 44.1267 395.706 45.823 401.111 59.3931C405.662 71.267 417.611 89.0778 434.395 109.433C440.653 116.783 445.774 123.851 445.774 124.699C446.058 127.527 443.214 133.463 439.8 137.704C438.093 139.966 436.102 143.076 435.248 144.772C433.541 149.578 428.99 152.122 423.016 151.557C419.033 151.274 417.326 151.84 415.05 153.819C413.343 155.232 411.637 155.232 410.499 154.949C407.085 153.819 403.102 150.426 399.973 144.206C397.128 138.27 395.137 136.008 387.456 130.071C376.077 121.59 371.241 119.611 349.62 115.087C340.517 113.108 331.129 110.847 329.138 110.281L325.155 108.868L323.164 113.108C321.457 116.784 317.759 131.202 314.63 145.055C293.863 151.274 278.786 168.237 265.7 185.765C258.019 196.225 251.191 207.534 243.795 218.559C236.766 234.609 216.061 241.722 209.366 253.691C172.752 228.651 151.689 189.065 125.168 158.342C141.383 154.949 154.753 150.143 165.279 144.489Z" fill="#5E2D7B"/>
<path d="M126.022 298.263V158.482L277.577 319.326C277.577 319.608 277.862 319.891 277.862 320.174C279.569 323.566 281.844 325.828 284.405 326.959L380.629 441.878H254.605V582.666H126.022V441.878H-0.00186157V298.263H126.022Z" fill="#5E2D7B"/>
<path d="M207.087 251.348C243.784 241.171 258.008 222.229 268.249 206.397C273.655 189.152 289.87 175.864 304.094 160.881C314.335 150.986 328.843 150.138 346.196 148.159C366.11 149.007 378.058 149.855 396.549 157.488C403.092 160.598 398.825 169.645 407.643 170.776C422.152 173.603 435.807 178.974 450.6 180.953C453.729 181.801 458.565 182.084 459.987 185.194C459.987 191.131 456.005 193.675 456.005 193.675C455.72 197.633 453.729 203.287 453.729 203.287C450.6 212.334 448.608 208.659 440.358 212.334C432.677 214.03 416.747 208.376 410.204 215.161C407.074 221.664 439.789 215.727 432.677 219.967C425.281 237.495 387.161 225.056 375.782 233.82C367.248 244.28 364.403 254.458 355.868 269.442C349.894 277.64 347.903 282.164 345.627 291.776C345.343 293.189 345.058 294.603 344.774 296.299C323.438 299.409 301.818 306.477 283.327 317.503C264.551 328.811 281.62 357.93 300.68 346.905C312.628 339.837 326.852 333.9 340.791 331.073C339.084 340.119 335.671 348.601 328.274 356.234C317.18 371.783 313.481 389.594 310.068 407.122C310.068 408.818 309.783 410.232 309.783 411.928C301.249 412.776 292.43 413.907 283.896 413.907C283.611 411.645 283.042 409.101 281.336 406.839C263.698 383.657 241.793 366.129 217.613 350.014C211.638 346.056 205.38 342.098 199.406 338.423C191.725 315.806 174.656 299.975 155.312 286.122C151.045 283.012 147.062 280.185 142.795 277.358C140.804 271.421 139.666 265.484 138.528 259.547C160.433 259.83 183.191 257.851 207.087 251.348Z" fill="#5E2D7B"/>
<path d="M266.173 375.705C272.147 357.611 271.293 339.8 283.526 325.947C298.319 305.592 321.361 306.157 340.137 301.068C344.119 301.351 347.533 300.22 350.947 298.241C354.361 297.393 357.774 295.98 360.619 294.283C364.886 289.194 366.593 281.561 371.998 277.32C375.696 274.493 379.395 271.383 383.662 269.687C400.446 272.232 404.429 257.813 410.687 258.096C419.506 259.227 408.411 271.949 410.403 277.886C416.661 280.43 419.79 285.237 421.497 290.325C421.782 294.849 428.325 296.828 428.04 301.351C427.756 305.309 422.92 308.702 418.937 310.398C415.239 312.094 411.541 310.964 408.411 313.225C403.006 318.031 403.86 327.926 401.584 334.712C398.455 341.497 396.463 349.695 389.636 353.653C387.076 357.894 381.67 358.177 378.257 361.852C372.852 365.81 364.317 372.595 360.904 379.098C360.904 379.098 360.619 379.098 360.619 379.38C355.499 383.338 351.8 388.427 347.818 393.516C346.395 395.212 344.688 397.191 343.551 399.17C342.697 400.301 341.844 401.149 340.706 402.28C338.999 403.977 337.576 406.238 336.723 408.217C332.74 407.652 328.758 407.369 324.775 406.238C313.68 403.694 303.439 397.474 293.198 392.951C284.379 389.275 273.854 385.035 263.328 382.773C264.75 380.511 265.888 378.25 266.173 375.705Z" fill="#5E2D7B"/>
<path d="M415.316 376.029C414.463 377.16 414.178 377.16 413.325 378.291C412.472 379.705 412.472 379.422 411.903 381.118C411.334 382.532 411.049 383.097 410.765 384.511C410.48 385.924 410.765 385.642 410.765 387.055C410.765 388.469 410.765 387.903 410.48 389.882C410.196 391.861 410.196 391.861 409.911 394.406C409.627 396.95 409.627 397.798 409.058 400.343C408.489 402.887 408.204 403.17 407.636 405.149C407.067 407.128 407.636 405.997 407.067 407.976C406.213 409.955 405.929 410.803 404.791 413.065C403.653 415.326 403.653 415.326 402.515 417.305C401.377 419.284 401.377 419.284 400.239 420.981C399.101 422.677 398.817 422.677 397.679 424.09C396.541 425.504 396.541 425.221 395.403 426.635C394.265 428.048 394.265 428.614 392.559 430.027C391.136 431.441 391.136 430.876 389.429 432.289C387.723 433.703 388.576 434.268 386.3 435.682C384.309 437.095 383.171 437.378 381.18 438.509C380.326 438.791 380.042 439.074 379.473 439.357C325.408 435.28 337.921 410.162 340.501 405.997C341.639 404.301 341.354 404.583 342.777 402.604C344.199 400.908 344.483 400.625 345.906 398.929C347.328 397.233 347.328 397.233 348.75 396.102C349.888 394.688 349.604 394.971 351.026 393.558L354.155 390.448C355.862 388.752 356.147 388.186 357.569 386.773C359.276 385.359 358.707 385.642 360.414 384.228C362.12 382.815 362.405 382.532 364.396 381.118L368.379 378.291C370.37 376.878 370.086 376.595 372.077 375.181C374.068 373.768 374.353 374.051 376.059 372.637C377.766 371.223 377.482 371.506 378.62 370.375C379.758 369.244 380.042 369.527 380.895 368.679C381.749 367.831 381.18 367.831 382.033 366.983C382.887 365.852 382.887 365.569 384.309 364.721C385.447 363.59 386.016 363.59 387.154 362.742C388.292 361.894 388.007 362.177 389.145 361.329C390.283 360.48 390.283 360.198 391.705 359.632C393.128 358.784 393.128 358.784 394.55 358.219C395.972 357.653 395.403 357.936 396.826 357.653C398.533 357.371 399.386 357.371 400.808 357.088C402.231 357.088 401.662 357.371 402.8 357.371C403.937 357.371 403.937 357.088 405.36 357.653C406.782 357.936 407.067 357.936 408.489 358.784C409.627 359.35 409.342 359.35 410.48 360.198C411.618 360.763 411.903 360.763 413.04 361.329C414.178 362.177 413.894 362.177 414.747 363.307C415.601 364.156 415.316 364.156 416.454 365.286C417.592 366.417 418.161 366.7 419.014 367.548C419.868 368.396 419.299 368.114 420.152 368.396C421.006 368.679 421.006 368.679 422.428 368.962C423.85 369.244 424.135 368.962 425.273 369.244C426.41 369.527 426.695 369.527 427.264 370.093C427.548 370.658 427.264 370.658 426.695 371.223C426.126 371.789 426.695 371.789 425.557 372.072C424.419 372.354 423.566 372.354 421.859 372.637C420.152 372.92 420.152 372.637 418.73 372.92C417.592 373.202 417.592 373.202 416.739 374.051C416.454 374.616 416.454 374.899 415.316 376.029Z" fill="#5E2D7B"/>
</g>
<defs>
<clipPath id="clip0_137_3915">
<rect width="460" height="582.667" fill="white"/>
</clipPath>
</defs>
</svg>
