<svg width="26" height="26" viewBox="0 0 26 26" fill="none" xmlns="http://www.w3.org/2000/svg">
<path d="M5.10681 15.5H2.60681C1.94377 15.5 1.30789 15.2366 0.839044 14.7678C0.370204 14.2989 0.106812 13.663 0.106812 13V3C0.106812 1.625 1.23181 0.5 2.60681 0.5H17.6068C18.2699 0.5 18.9057 0.763392 19.3746 1.23223C19.8434 1.70107 20.1068 2.33696 20.1068 3V5.5H22.6068C23.2699 5.5 23.9057 5.76339 24.3746 6.23223C24.8434 6.70107 25.1068 7.33696 25.1068 8V24.25C25.1034 24.4947 25.0282 24.7329 24.8906 24.9353C24.7531 25.1376 24.5591 25.2951 24.3329 25.3883C24.1066 25.4815 23.858 25.5062 23.6178 25.4594C23.3777 25.4126 23.1565 25.2963 22.9818 25.125L18.3318 20.5H7.60681C6.94377 20.5 6.30789 20.2366 5.83904 19.7678C5.3702 19.2989 5.10681 18.663 5.10681 18V15.5ZM5.10681 13V8C5.10681 6.625 6.23181 5.5 7.60681 5.5H17.6068V3H2.60681V13H5.10681ZM22.6068 8H7.60681V18H18.8568C19.1865 18.0047 19.501 18.1395 19.7318 18.375L22.6068 21.2375V8Z" fill="#F4F4F4"/>
</svg>
