<svg width="23" height="26" viewBox="0 0 23 26" fill="none" xmlns="http://www.w3.org/2000/svg">
<path d="M11.6068 13C9.94921 13 8.3595 12.3415 7.18739 11.1694C6.01529 9.99732 5.35681 8.4076 5.35681 6.75C5.35681 5.0924 6.01529 3.50269 7.18739 2.33058C8.3595 1.15848 9.94921 0.5 11.6068 0.5C13.2644 0.5 14.8541 1.15848 16.0262 2.33058C17.1983 3.50269 17.8568 5.0924 17.8568 6.75C17.8568 8.4076 17.1983 9.99732 16.0262 11.1694C14.8541 12.3415 13.2644 13 11.6068 13ZM11.6068 10.5C12.0993 10.5 12.5869 10.403 13.0419 10.2145C13.4968 10.0261 13.9102 9.74987 14.2585 9.40165C14.6067 9.05343 14.8829 8.64003 15.0714 8.18506C15.2598 7.73009 15.3568 7.24246 15.3568 6.75C15.3568 6.25754 15.2598 5.76991 15.0714 5.31494C14.8829 4.85997 14.6067 4.44657 14.2585 4.09835C13.9102 3.75013 13.4968 3.47391 13.0419 3.28545C12.5869 3.097 12.0993 3 11.6068 3C10.6122 3 9.65842 3.39509 8.95516 4.09835C8.2519 4.80161 7.85681 5.75544 7.85681 6.75C7.85681 7.74456 8.2519 8.69839 8.95516 9.40165C9.65842 10.1049 10.6122 10.5 11.6068 10.5ZM22.8568 24.25C22.8568 24.5815 22.7251 24.8995 22.4907 25.1339C22.2563 25.3683 21.9383 25.5 21.6068 25.5C21.2753 25.5 20.9573 25.3683 20.7229 25.1339C20.4885 24.8995 20.3568 24.5815 20.3568 24.25V21.75C20.3568 20.7554 19.9617 19.8016 19.2585 19.0983C18.5552 18.3951 17.6014 18 16.6068 18H6.60681C5.61225 18 4.65842 18.3951 3.95516 19.0983C3.2519 19.8016 2.85681 20.7554 2.85681 21.75V24.25C2.85681 24.5815 2.72512 24.8995 2.49069 25.1339C2.25627 25.3683 1.93833 25.5 1.60681 25.5C1.27529 25.5 0.957348 25.3683 0.722928 25.1339C0.488508 24.8995 0.356812 24.5815 0.356812 24.25V21.75C0.356812 20.0924 1.01529 18.5027 2.18739 17.3306C3.3595 16.1585 4.94921 15.5 6.60681 15.5H16.6068C18.2644 15.5 19.8541 16.1585 21.0262 17.3306C22.1983 18.5027 22.8568 20.0924 22.8568 21.75V24.25Z" fill="#F4F4F4"/>
</svg>
