<svg width="31" height="30" viewBox="0 0 31 30" fill="none" xmlns="http://www.w3.org/2000/svg">
<path d="M16.8568 25V18.75H14.3568V25C14.3568 25.6631 14.0934 26.2989 13.6246 26.7678C13.1558 27.2366 12.5199 27.5 11.8568 27.5H8.10682C7.44378 27.5 6.8079 27.2366 6.33906 26.7678C5.87022 26.2989 5.60682 25.6631 5.60682 25V15.5125L5.23182 15.8875C5.11882 16.0175 4.98017 16.1227 4.82457 16.1966C4.66898 16.2705 4.49979 16.3114 4.32764 16.3168C4.15548 16.3222 3.98406 16.292 3.82414 16.228C3.66422 16.164 3.51925 16.0677 3.39832 15.945C3.27739 15.8224 3.18312 15.676 3.12142 15.5152C3.05971 15.3544 3.03191 15.1826 3.03975 15.0105C3.04759 14.8385 3.0909 14.6699 3.16698 14.5153C3.24305 14.3608 3.35024 14.2237 3.48182 14.1125L14.7318 2.86251C14.9655 2.63348 15.2796 2.50519 15.6068 2.50519C15.934 2.50519 16.2482 2.63348 16.4818 2.86251L27.7318 14.1125C27.9384 14.3502 28.0477 14.657 28.0378 14.9718C28.028 15.2865 27.8997 15.586 27.6786 15.8102C27.4575 16.0344 27.1599 16.167 26.8454 16.1813C26.5308 16.1956 26.2224 16.0907 25.9818 15.8875L25.6068 15.5125V25C25.6068 25.6631 25.3434 26.2989 24.8746 26.7678C24.4057 27.2366 23.7699 27.5 23.1068 27.5H19.3568C18.6938 27.5 18.0579 27.2366 17.5891 26.7678C17.1202 26.2989 16.8568 25.6631 16.8568 25ZM23.1068 25V13.0125L15.6068 5.51251L8.10682 13.0125V25H11.8568V18.75C11.8568 17.375 12.9818 16.25 14.3568 16.25H16.8568C17.5199 16.25 18.1558 16.5134 18.6246 16.9822C19.0934 17.4511 19.3568 18.087 19.3568 18.75V25H23.1068Z" fill="#F4F4F4"/>
</svg>
