<svg width="31" height="30" viewBox="0 0 31 30" fill="none" xmlns="http://www.w3.org/2000/svg">
<path d="M6.85681 3.75H24.3568C25.0199 3.75 25.6557 4.01339 26.1246 4.48223C26.5934 4.95107 26.8568 5.58696 26.8568 6.25V23.75C26.8568 24.413 26.5934 25.0489 26.1246 25.5178C25.6557 25.9866 25.0199 26.25 24.3568 26.25H6.85681C6.19377 26.25 5.55789 25.9866 5.08904 25.5178C4.6202 25.0489 4.35681 24.413 4.35681 23.75V6.25C4.35681 4.875 5.48181 3.75 6.85681 3.75ZM6.85681 6.25V23.75H24.3568V6.25H6.85681ZM16.8568 13.75H19.3568C19.6883 13.75 20.0063 13.8817 20.2407 14.1161C20.4751 14.3505 20.6068 14.6685 20.6068 15C20.6068 15.3315 20.4751 15.6495 20.2407 15.8839C20.0063 16.1183 19.6883 16.25 19.3568 16.25H16.8568V18.75C16.8568 19.0815 16.7251 19.3995 16.4907 19.6339C16.2563 19.8683 15.9383 20 15.6068 20C15.2753 20 14.9573 19.8683 14.7229 19.6339C14.4885 19.3995 14.3568 19.0815 14.3568 18.75V16.25H11.8568C11.5253 16.25 11.2073 16.1183 10.9729 15.8839C10.7385 15.6495 10.6068 15.3315 10.6068 15C10.6068 14.6685 10.7385 14.3505 10.9729 14.1161C11.2073 13.8817 11.5253 13.75 11.8568 13.75H14.3568V11.25C14.3568 10.9185 14.4885 10.6005 14.7229 10.3661C14.9573 10.1317 15.2753 10 15.6068 10C15.9383 10 16.2563 10.1317 16.4907 10.3661C16.7251 10.6005 16.8568 10.9185 16.8568 11.25V13.75Z" fill="#F4F4F4"/>
</svg>
