<svg width="19" height="20" viewBox="0 0 19 20" fill="none" xmlns="http://www.w3.org/2000/svg">
<path d="M13.4864 12.9L18.4039 18.3C18.5522 18.4925 18.6288 18.7392 18.6183 18.9908C18.6078 19.2425 18.5111 19.4806 18.3474 19.6574C18.1838 19.8343 17.9652 19.9369 17.7355 19.9448C17.5058 19.9527 17.2818 19.8653 17.1084 19.7L12.2 14.32C10.7337 15.5686 8.88827 16.1576 7.03959 15.9672C5.19091 15.7767 3.47795 14.8211 2.24951 13.2949C1.02108 11.7687 0.36952 9.78667 0.427514 7.7524C0.485509 5.71812 1.24869 3.78456 2.56167 2.34541C3.87465 0.906257 5.63869 0.0697326 7.49461 0.00616501C9.35054 -0.0574026 11.1588 0.656766 12.5512 2.00326C13.9436 3.34974 14.8154 5.22731 14.9892 7.25364C15.1629 9.27998 14.6255 11.3027 13.4864 12.91V12.9ZM7.72052 14C9.17231 14 10.5646 13.3679 11.5912 12.2427C12.6178 11.1174 13.1945 9.59131 13.1945 8.00001C13.1945 6.40871 12.6178 4.88259 11.5912 3.75737C10.5646 2.63215 9.17231 2.00001 7.72052 2.00001C6.26873 2.00001 4.87641 2.63215 3.84984 3.75737C2.82328 4.88259 2.24656 6.40871 2.24656 8.00001C2.24656 9.59131 2.82328 11.1174 3.84984 12.2427C4.87641 13.3679 6.26873 14 7.72052 14Z" fill="#2B2B2B"/>
</svg>
