<svg width="30" height="31" viewBox="0 0 30 31" fill="none" xmlns="http://www.w3.org/2000/svg">
<path d="M2.5 19.1157V6.61572C2.5 5.24072 3.625 4.11572 5 4.11572H25C25.663 4.11572 26.2989 4.37911 26.7678 4.84796C27.2366 5.3168 27.5 5.95268 27.5 6.61572V25.3657C27.4966 25.6104 27.4214 25.8486 27.2838 26.051C27.1462 26.2533 26.9523 26.4108 26.7261 26.504C26.4998 26.5972 26.2512 26.6219 26.011 26.5751C25.7709 26.5283 25.5497 26.412 25.375 26.2407L20.725 21.6157H5C4.33696 21.6157 3.70107 21.3523 3.23223 20.8835C2.76339 20.4146 2.5 19.7788 2.5 19.1157ZM25 6.61572H5V19.1157H21.25C21.5797 19.1204 21.8942 19.2552 22.125 19.4907L25 22.3532V6.61572Z" fill="#2B2B2B"/>
</svg>
