<svg width="24" height="24" viewBox="0 0 24 24" fill="none" xmlns="http://www.w3.org/2000/svg">
<path d="M6.3 12.3L16.3 2.30002C16.4869 2.11679 16.7382 2.01416 17 2.01416C17.2618 2.01416 17.5131 2.11679 17.7 2.30002L21.7 6.30002C21.8832 6.48695 21.9859 6.73826 21.9859 7.00002C21.9859 7.26177 21.8832 7.51309 21.7 7.70002L11.7 17.7C11.5154 17.8884 11.2638 17.9963 11 18H7C6.73478 18 6.48043 17.8947 6.29289 17.7071C6.10536 17.5196 6 17.2652 6 17V13C6.00376 12.7362 6.11159 12.4846 6.3 12.3V12.3ZM8 16H10.59L19.59 7.00002L17 4.41002L8 13.41V16ZM18 14C18 13.7348 18.1054 13.4804 18.2929 13.2929C18.4804 13.1054 18.7348 13 19 13C19.2652 13 19.5196 13.1054 19.7071 13.2929C19.8946 13.4804 20 13.7348 20 14V20C20 20.5305 19.7893 21.0392 19.4142 21.4142C19.0391 21.7893 18.5304 22 18 22H4C3.46957 22 2.96086 21.7893 2.58579 21.4142C2.21071 21.0392 2 20.5305 2 20V6.00002C2 4.90002 2.9 4.00002 4 4.00002H10C10.2652 4.00002 10.5196 4.10537 10.7071 4.29291C10.8946 4.48045 11 4.7348 11 5.00002C11 5.26523 10.8946 5.51959 10.7071 5.70712C10.5196 5.89466 10.2652 6.00002 10 6.00002H4V20H18V14Z" fill="#575757"/>
</svg>
