<svg width="20" height="14" viewBox="0 0 20 14" fill="none" xmlns="http://www.w3.org/2000/svg">
<path d="M14 3.38L18.55 1.11C18.7022 1.03329 18.8715 0.996768 19.0419 1.0039C19.2122 1.01104 19.3778 1.06159 19.5231 1.15076C19.6684 1.23994 19.7885 1.36477 19.8719 1.5134C19.9554 1.66203 19.9995 1.82954 20 2V12C20.0012 12.1713 19.9584 12.3401 19.8756 12.4901C19.7928 12.6401 19.6729 12.7663 19.5274 12.8566C19.3818 12.947 19.2155 12.9984 19.0444 13.006C18.8732 13.0136 18.703 12.9771 18.55 12.9L14 10.61V12C14 12.5304 13.7893 13.0391 13.4142 13.4142C13.0391 13.7893 12.5304 14 12 14H2C1.46957 14 0.960859 13.7893 0.585786 13.4142C0.210714 13.0391 0 12.5304 0 12V2C0 0.9 0.9 0 2 0H12C12.5304 0 13.0391 0.210714 13.4142 0.585786C13.7893 0.960859 14 1.46957 14 2V3.38V3.38ZM14 5.62V8.38L18 10.38V3.62L14 5.62V5.62ZM12 12V2H2V12H12Z" fill="#2B2B2B"/>
</svg>
