<svg width="24" height="24" viewBox="0 0 24 24" fill="none" xmlns="http://www.w3.org/2000/svg">
<path d="M6.1 21.98C5.9344 22.067 5.74768 22.1059 5.56108 22.0922C5.37448 22.0784 5.19548 22.0126 5.04443 21.9022C4.89338 21.7917 4.77634 21.6411 4.70662 21.4675C4.63689 21.2939 4.61728 21.1042 4.65 20.92L5.68 14.89L1.3 10.63C1.165 10.4995 1.06944 10.3337 1.02426 10.1515C0.979084 9.96926 0.986109 9.77801 1.04454 9.5996C1.10296 9.42119 1.21043 9.26283 1.35464 9.14264C1.49885 9.02245 1.67399 8.94528 1.86 8.91996L7.91 8.03996L10.61 2.55996C10.6919 2.39089 10.8197 2.2483 10.9789 2.14853C11.1381 2.04876 11.3221 1.99585 11.51 1.99585C11.6979 1.99585 11.8819 2.04876 12.0411 2.14853C12.2003 2.2483 12.3281 2.39089 12.41 2.55996L15.11 8.03996L21.17 8.91996C21.3532 8.94822 21.5248 9.02681 21.6659 9.14697C21.807 9.26713 21.9119 9.42413 21.969 9.60044C22.026 9.77676 22.0329 9.96546 21.989 10.1455C21.945 10.3255 21.8519 10.4898 21.72 10.62L17.34 14.89L18.38 20.92C18.4141 21.1055 18.395 21.297 18.325 21.4722C18.2549 21.6473 18.1367 21.7991 17.984 21.91C17.8313 22.0208 17.6504 22.0862 17.4621 22.0986C17.2738 22.111 17.0859 22.0699 16.92 21.98L11.52 19.13L6.1 21.98V21.98ZM11.05 17.11C11.1934 17.0346 11.353 16.9953 11.515 16.9953C11.677 16.9953 11.8366 17.0346 11.98 17.11L16.06 19.26L15.28 14.71C15.2538 14.5508 15.2664 14.3876 15.3169 14.2343C15.3674 14.0811 15.4543 13.9424 15.57 13.83L18.87 10.61L14.31 9.93996C14.149 9.91845 13.9956 9.85804 13.8632 9.76395C13.7308 9.66986 13.6233 9.54493 13.55 9.39996L11.51 5.25996L9.47 9.39996C9.39765 9.54366 9.29169 9.66779 9.16113 9.7618C9.03056 9.85581 8.87924 9.91692 8.72 9.93996L4.15 10.61L7.45 13.83C7.56753 13.9414 7.65624 14.0797 7.70849 14.233C7.76075 14.3863 7.77499 14.5499 7.75 14.71L6.96 19.26L11.05 17.11V17.11Z" fill="#2B2B2B"/>
</svg>
