<svg width="25" height="26" viewBox="0 0 25 26" fill="none" xmlns="http://www.w3.org/2000/svg">
<path d="M19.525 10.5H22.5C23.163 10.5 23.7989 10.7634 24.2678 11.2322C24.7366 11.7011 25 12.337 25 13V23C25 23.663 24.7366 24.2989 24.2678 24.7678C23.7989 25.2366 23.163 25.5 22.5 25.5H8.125C6.625 25.5 5.25 24.6 4.7 23.2625L0.325001 14.5125L0.287501 14.4375C0.0510507 13.8678 -0.0412161 13.2486 0.0188771 12.6347C0.0789703 12.0208 0.289568 11.4312 0.632007 10.9181C0.974446 10.4051 1.43815 9.98445 1.98203 9.69347C2.52591 9.40249 3.13317 9.25017 3.75 9.25H10V3C10 1.625 11.125 0.5 12.5 0.5H14.525L19.525 10.5ZM17.5 12.05L12.975 3H12.5V11.75H3.75C3.54733 11.7506 3.34785 11.8005 3.16874 11.8953C2.98963 11.9901 2.83627 12.1271 2.72187 12.2944C2.60747 12.4617 2.53546 12.6543 2.51205 12.8556C2.48865 13.0569 2.51454 13.2609 2.5875 13.45L6.9625 22.225C7.05709 22.4552 7.21826 22.652 7.42537 22.7901C7.63247 22.9282 7.87609 23.0012 8.125 23H17.5V12.05ZM20 13V23H22.5V13H20Z" fill="#2B2B2B"/>
</svg>
