<svg width="23" height="24" viewBox="0 0 23 24" fill="none" xmlns="http://www.w3.org/2000/svg">
<path d="M17.75 0.122437C18.4792 0.122365 19.1968 0.304452 19.8378 0.652162C20.4788 0.999872 21.0227 1.50219 21.4202 2.11349C21.8177 2.7248 22.0563 3.42573 22.1141 4.15262C22.172 4.87952 22.0473 5.60935 21.7515 6.27584C21.4557 6.94233 20.998 7.52437 20.4202 7.96908C19.8423 8.4138 19.1625 8.70712 18.4424 8.82239C17.7224 8.93767 16.985 8.87125 16.2972 8.62917C15.6093 8.38708 14.9929 7.97701 14.5037 7.43619L8.80624 10.6912C9.0731 11.5429 9.0731 12.4558 8.80624 13.3074L14.5025 16.5649C15.2267 15.7647 16.2211 15.2602 17.2947 15.1483C18.3682 15.0365 19.4452 15.3253 20.3188 15.9591C21.1925 16.5929 21.8011 17.5272 22.0279 18.5824C22.2547 19.6377 22.0837 20.7395 21.5477 21.6763C21.0116 22.6132 20.1484 23.3189 19.1237 23.6581C18.099 23.9972 16.9851 23.9459 15.996 23.5138C15.0069 23.0818 14.2123 22.2996 13.7647 21.3174C13.3172 20.3352 13.2483 19.2223 13.5712 18.1924L7.87499 14.9337C7.2817 15.5897 6.50361 16.0506 5.64321 16.2557C4.78281 16.4607 3.88047 16.4003 3.05507 16.0825C2.22967 15.7646 1.51992 15.2041 1.01934 14.4749C0.518751 13.7457 0.250809 12.8819 0.250809 11.9974C0.250809 11.1129 0.518751 10.2492 1.01934 9.51997C1.51992 8.79076 2.22967 8.23029 3.05507 7.91241C3.88047 7.59453 4.78281 7.53415 5.64321 7.73921C6.50361 7.94428 7.2817 8.40518 7.87499 9.06119L13.5712 5.80619C13.3663 5.15072 13.3185 4.45624 13.4316 3.77887C13.5447 3.1015 13.8156 2.46024 14.2224 1.90694C14.6292 1.35364 15.1605 0.903803 15.7733 0.593802C16.3861 0.283801 17.0632 0.122329 17.75 0.122437ZM17.75 16.9974C17.0863 16.9974 16.4498 17.2611 15.9805 17.7304C15.5111 18.1997 15.2475 18.8362 15.2475 19.4999C15.2475 20.1636 15.5111 20.8002 15.9805 21.2695C16.4498 21.7388 17.0863 22.0024 17.75 22.0024C18.4137 22.0024 19.0502 21.7388 19.5195 21.2695C19.9888 20.8002 20.2525 20.1636 20.2525 19.4999C20.2525 18.8362 19.9888 18.1997 19.5195 17.7304C19.0502 17.2611 18.4137 16.9974 17.75 16.9974ZM4.62749 9.49744C3.96379 9.49744 3.32727 9.76109 2.85796 10.2304C2.38865 10.6997 2.12499 11.3362 2.12499 11.9999C2.12499 12.6636 2.38865 13.3002 2.85796 13.7695C3.32727 14.2388 3.96379 14.5024 4.62749 14.5024C5.29119 14.5024 5.92772 14.2388 6.39703 13.7695C6.86633 13.3002 7.12999 12.6636 7.12999 11.9999C7.12999 11.3362 6.86633 10.6997 6.39703 10.2304C5.92772 9.76109 5.29119 9.49744 4.62749 9.49744ZM17.75 1.99744C17.0863 1.99744 16.4498 2.26109 15.9805 2.7304C15.5111 3.19971 15.2475 3.83623 15.2475 4.49994C15.2475 5.16364 15.5111 5.80016 15.9805 6.26947C16.4498 6.73878 17.0863 7.00244 17.75 7.00244C18.4137 7.00244 19.0502 6.73878 19.5195 6.26947C19.9888 5.80016 20.2525 5.16364 20.2525 4.49994C20.2525 3.83623 19.9888 3.19971 19.5195 2.7304C19.0502 2.26109 18.4137 1.99744 17.75 1.99744Z" fill="black"/>
</svg>
