<svg width="70" height="96" viewBox="0 0 70 96" fill="none" xmlns="http://www.w3.org/2000/svg">
<rect width="69.525" height="96" fill="#9C75B3"/>
<path d="M25.2355 24.3048C27.4133 23.0275 27.6227 22.7994 31.2662 17.3707C34.6167 12.3527 36.2081 10.6648 39.768 8.15571C42.7415 6.10285 45.0449 5.19047 49.0236 4.59743L51.2851 4.23248L52.5834 2.77267C53.2954 1.95153 53.9654 1.31286 54.0492 1.26724C54.3005 1.22162 54.3005 1.63219 54.0911 2.86391C53.9654 3.45695 53.9654 3.95876 54.0073 4.05C54.1749 4.18686 55.0543 3.00076 55.5988 1.86029C55.8501 1.31286 56.1432 0.947908 56.227 0.993527C56.6458 1.176 56.3945 4.00438 55.8501 4.91676C55.515 5.55543 55.7244 5.82914 57.274 6.924C58.9492 8.11009 59.1586 8.3838 59.9543 10.5735C60.6244 12.4895 62.3834 15.3635 64.8544 18.6481C65.7757 19.8342 66.5296 20.9746 66.5296 21.1115C66.5715 21.5677 66.1527 22.5257 65.6501 23.21C65.3988 23.5749 65.1056 24.0767 64.98 24.3505C64.7287 25.126 64.0586 25.5365 63.1791 25.4453C62.5928 25.3997 62.3415 25.4909 62.0065 25.8103C61.7552 26.0384 61.5039 26.0384 61.3364 25.9927C60.8338 25.8103 60.2475 25.2628 59.7868 24.2592C59.368 23.3012 59.0749 22.9363 57.9441 21.9783C56.2689 20.6097 55.5569 20.2904 52.374 19.5605C51.0338 19.2411 49.6518 18.8762 49.3586 18.7849L48.7723 18.5568L48.4791 19.2411C48.2278 19.8342 47.6834 22.1607 47.2227 24.3961C44.1654 25.3997 41.9458 28.1368 40.0193 30.9652C38.8885 32.6531 37.8834 34.4779 36.7945 36.257C35.7596 38.8468 32.7116 39.9946 31.7259 41.926C26.3357 37.8854 23.2347 31.4977 19.3303 26.5402C21.7175 25.9927 23.6859 25.2172 25.2355 24.3048Z" fill="#F4F4F4"/>
<path d="M19.456 49.1181V26.5628L41.7678 52.5169C41.7678 52.5625 41.8097 52.6082 41.8097 52.6538C42.061 53.2012 42.396 53.5662 42.7729 53.7486L56.939 72.2923H38.3859V95.0103H19.456V72.2923H0.90293V49.1181H19.456Z" fill="#F4F4F4"/>
<path d="M31.3904 41.5479C36.7929 39.9056 38.887 36.8492 40.3946 34.2945C41.1904 31.5117 43.5776 29.3676 45.6716 26.9498C47.1793 25.3532 49.3152 25.2163 51.8699 24.897C54.8015 25.0338 56.5605 25.1707 59.2827 26.4024C60.246 26.9042 59.6178 28.364 60.9161 28.5465C63.052 29.0027 65.0622 29.8694 67.24 30.1888C67.7007 30.3256 68.4127 30.3713 68.6221 30.8731C68.6221 31.8311 68.0357 32.2416 68.0357 32.2416C67.9939 32.8803 67.7007 33.7927 67.7007 33.7927C67.24 35.2525 66.9468 34.6594 65.7323 35.2525C64.6015 35.5262 62.2562 34.6138 61.293 35.7087C60.8323 36.7579 65.6485 35.7999 64.6015 36.4842C63.5126 39.3126 57.9007 37.3053 56.2254 38.7195C54.969 40.4074 54.5502 42.0497 53.2938 44.4675C52.4143 45.7905 52.1212 46.5204 51.7861 48.0714C51.7443 48.2995 51.7024 48.5276 51.6605 48.8013C48.5195 49.3031 45.3365 50.4436 42.6143 52.2228C39.8502 54.0475 42.363 58.7463 45.169 56.9671C46.928 55.8266 49.022 54.8686 51.0742 54.4125C50.8229 55.8723 50.3203 57.2408 49.2314 58.4725C47.5981 60.9816 47.0536 63.8556 46.5511 66.684C46.5511 66.9577 46.5092 67.1858 46.5092 67.4595C45.2528 67.5963 43.9545 67.7788 42.6981 67.7788C42.6562 67.4139 42.5724 67.0033 42.3212 66.6383C39.7246 62.8976 36.4998 60.0692 32.9399 57.4689C32.0604 56.8303 31.1391 56.1916 30.2596 55.5986C29.1288 51.949 26.616 49.3944 23.7681 47.159C23.1399 46.6572 22.5536 46.201 21.9254 45.7448C21.6322 44.7868 21.4647 43.8289 21.2972 42.8709C24.522 42.9165 27.8724 42.5971 31.3904 41.5479V41.5479Z" fill="#F4F4F4"/>
<path d="M40.0889 61.6145C40.9684 58.6949 40.8427 55.8208 42.6436 53.5855C44.8214 50.3009 48.2137 50.3921 50.9778 49.5709C51.5641 49.6166 52.0667 49.4341 52.5692 49.1147C53.0718 48.9779 53.5744 48.7498 53.9932 48.4761C54.6214 47.6549 54.8727 46.4232 55.6684 45.7389C56.2128 45.2827 56.7573 44.7809 57.3855 44.5072C59.8564 44.9178 60.4428 42.5912 61.3641 42.6368C62.6624 42.8192 61.0291 44.8721 61.3223 45.8301C62.2436 46.2407 62.7043 47.0163 62.9556 47.8374C62.9975 48.5673 63.9607 48.8866 63.9188 49.6166C63.877 50.2552 63.165 50.8027 62.5787 51.0764C62.0342 51.3501 61.4898 51.1676 61.0291 51.5326C60.2334 52.3081 60.359 53.9048 60.024 54.9997C59.5633 56.0945 59.2701 57.4175 58.265 58.0562C57.8881 58.7405 57.0923 58.7861 56.5898 59.3791C55.794 60.0178 54.5376 61.1127 54.0351 62.1619C54.0351 62.1619 53.9932 62.1619 53.9932 62.2076C53.2393 62.8462 52.6949 63.6674 52.1086 64.4885C51.8992 64.7623 51.6479 65.0816 51.4803 65.4009C51.3547 65.5834 51.2291 65.7203 51.0615 65.9027C50.8103 66.1765 50.6009 66.5414 50.4752 66.8608C49.8889 66.7695 49.3026 66.7239 48.7162 66.5414C47.0829 66.1308 45.5752 65.1272 44.0675 64.3973C42.7692 63.8042 41.2196 63.1199 39.6701 62.755C39.8795 62.39 40.047 62.0251 40.0889 61.6145Z" fill="#F4F4F4"/>
<path d="M62.0456 61.6668C61.9199 61.8493 61.8781 61.8493 61.7524 62.0318C61.6268 62.2599 61.6268 62.2143 61.543 62.488C61.4593 62.7161 61.4174 62.8073 61.3755 63.0354C61.3336 63.2635 61.3755 63.2179 61.3755 63.446C61.3755 63.6741 61.3755 63.5828 61.3336 63.9022C61.2917 64.2215 61.2917 64.2215 61.2499 64.6321C61.208 65.0426 61.208 65.1795 61.1242 65.5901C61.0405 66.0006 60.9986 66.0463 60.9148 66.3656C60.8311 66.6849 60.9148 66.5025 60.8311 66.8218C60.7054 67.1411 60.6636 67.278 60.496 67.6429C60.3285 68.0079 60.3285 68.0079 60.161 68.3272C59.9935 68.6465 59.9935 68.6466 59.826 68.9203C59.6584 69.194 59.6166 69.194 59.4491 69.4221C59.2815 69.6502 59.2815 69.6046 59.114 69.8326C58.9465 70.0607 58.9465 70.152 58.6952 70.3801C58.4858 70.6082 58.4858 70.5169 58.2346 70.745C57.9833 70.9731 58.1089 71.0644 57.7739 71.2924C57.4807 71.5205 57.3132 71.5662 57.0201 71.7486C56.8944 71.7943 56.8525 71.8399 56.7688 71.8855C48.8094 71.2276 50.6515 67.1745 51.0313 66.5024C51.1988 66.2287 51.157 66.2744 51.3664 65.955C51.5758 65.6813 51.6176 65.6357 51.827 65.362C52.0364 65.0883 52.0364 65.0883 52.2458 64.9058C52.4133 64.6777 52.3715 64.7233 52.5809 64.4952L53.0415 63.9934C53.2928 63.7197 53.3347 63.6284 53.5441 63.4004C53.7954 63.1723 53.7116 63.2179 53.9629 62.9898C54.2141 62.7617 54.256 62.7161 54.5492 62.488L55.1355 62.0318C55.4286 61.8037 55.3868 61.7581 55.6799 61.53C55.9731 61.3019 56.015 61.3475 56.2662 61.1194C56.5175 60.8913 56.4756 60.9369 56.6431 60.7544C56.8107 60.572 56.8525 60.6176 56.9782 60.4807C57.1038 60.3439 57.0201 60.3439 57.1457 60.207C57.2713 60.0245 57.2713 59.9789 57.4807 59.8421C57.6482 59.6596 57.732 59.6596 57.8995 59.5227C58.067 59.3859 58.0252 59.4315 58.1927 59.2946C58.3602 59.1578 58.3602 59.1122 58.5696 59.0209C58.779 58.8841 58.779 58.8841 58.9884 58.7928C59.1978 58.7016 59.114 58.7472 59.3234 58.7016C59.5747 58.656 59.7003 58.656 59.9097 58.6104C60.1191 58.6104 60.0354 58.656 60.2029 58.656C60.3704 58.656 60.3704 58.6103 60.5798 58.7016C60.7892 58.7472 60.8311 58.7472 61.0405 58.8841C61.208 58.9753 61.1661 58.9753 61.3336 59.1122C61.5011 59.2034 61.543 59.2034 61.7105 59.2946C61.878 59.4315 61.8362 59.4315 61.9618 59.614C62.0874 59.7508 62.0456 59.7508 62.2131 59.9333C62.3806 60.1158 62.4644 60.1614 62.59 60.2982C62.7156 60.4351 62.6319 60.3895 62.7575 60.4351C62.8832 60.4807 62.8832 60.4807 63.0925 60.5263C63.3019 60.572 63.3438 60.5263 63.5113 60.572C63.6789 60.6176 63.7207 60.6176 63.8045 60.7088C63.8464 60.8001 63.8045 60.8001 63.7207 60.8913C63.637 60.9825 63.7207 60.9825 63.5532 61.0282C63.3857 61.0738 63.2601 61.0738 63.0088 61.1194C62.7575 61.165 62.7575 61.1194 62.5481 61.165C62.3806 61.2106 62.3806 61.2106 62.255 61.3475C62.2131 61.4387 62.2131 61.4843 62.0456 61.6668V61.6668Z" fill="#F4F4F4"/>
</svg>
